<svg width="452" height="530" viewBox="0 0 452 530" fill="none" xmlns="http://www.w3.org/2000/svg">
<path d="M429.379 0.962189H72.1181C60.2713 0.962189 50.6675 10.5573 50.6675 22.3935V303.283C50.6675 315.119 60.2713 324.714 72.1181 324.714H429.379C441.226 324.714 450.829 315.119 450.829 303.283V22.3935C450.829 10.5573 441.226 0.962189 429.379 0.962189Z" fill="white"/>
<path d="M429.379 325.387H72.1181C66.2522 325.38 60.6283 323.05 56.4805 318.905C52.3327 314.761 49.9996 309.143 49.9933 303.282V22.3947C49.9996 16.5341 52.3327 10.9153 56.4805 6.77119C60.6283 2.6271 66.2522 0.296164 72.1181 0.289825L429.379 0.289825C435.245 0.296326 440.868 2.62731 445.016 6.77137C449.164 10.9154 451.497 16.5341 451.504 22.3947V303.283C451.497 309.143 449.164 314.762 445.016 318.906C440.868 323.049 435.245 325.38 429.379 325.387ZM72.1181 1.63515C66.6094 1.64149 61.3281 3.83071 57.4329 7.72252C53.5376 11.6143 51.3466 16.8909 51.3404 22.3947V303.283C51.3468 308.786 53.5379 314.063 57.4331 317.954C61.3283 321.846 66.6095 324.035 72.1181 324.042H429.379C434.887 324.035 440.169 321.846 444.064 317.955C447.959 314.063 450.15 308.786 450.156 303.283V22.3947C450.15 16.8909 447.959 11.6142 444.064 7.72234C440.169 3.83049 434.888 1.64133 429.379 1.63515H72.1181Z" fill="#292A2E"/>
<path opacity="0.2" d="M419.467 59.1637H397.531C392.907 59.1637 389.159 62.9085 389.159 67.5279V89.4443C389.159 94.0637 392.907 97.8085 397.531 97.8085H419.467C424.09 97.8085 427.839 94.0637 427.839 89.4443V67.5279C427.839 62.9085 424.09 59.1637 419.467 59.1637Z" fill="#367CFF"/>
<path opacity="0.2" d="M420.148 107.977H398.38C393.71 107.977 389.924 111.759 389.924 116.425V138.173C389.924 142.839 393.71 146.622 398.38 146.622H420.148C424.818 146.622 428.604 142.839 428.604 138.173V116.425C428.604 111.759 424.818 107.977 420.148 107.977Z" fill="#367CFF"/>
<path opacity="0.2" d="M420.148 162.343H398.38C393.71 162.343 389.924 166.125 389.924 170.791V192.539C389.924 197.205 393.71 200.987 398.38 200.987H420.148C424.818 200.987 428.604 197.205 428.604 192.539V170.791C428.604 166.125 424.818 162.343 420.148 162.343Z" fill="#367CFF"/>
<path opacity="0.2" d="M419.383 213.927H397.615C392.945 213.927 389.159 217.709 389.159 222.375V244.123C389.159 248.789 392.945 252.572 397.615 252.572H419.383C424.053 252.572 427.839 248.789 427.839 244.123V222.375C427.839 217.709 424.053 213.927 419.383 213.927Z" fill="#367CFF"/>
<g opacity="0.15">
<path d="M261.741 59.1637H239.805C235.181 59.1637 231.433 62.9085 231.433 67.5279V89.4443C231.433 94.0638 235.181 97.8086 239.805 97.8086H261.741C266.365 97.8086 270.113 94.0638 270.113 89.4443V67.5279C270.113 62.9085 266.365 59.1637 261.741 59.1637Z" fill="#367CFF"/>
<path d="M209.166 59.1637H187.23C182.606 59.1637 178.858 62.9085 178.858 67.5279V89.4443C178.858 94.0638 182.606 97.8086 187.23 97.8086H209.166C213.789 97.8086 217.538 94.0638 217.538 89.4443V67.5279C217.538 62.9085 213.789 59.1637 209.166 59.1637Z" fill="#367CFF"/>
<path d="M157.355 59.1637H135.419C130.796 59.1637 127.047 62.9085 127.047 67.5279V89.4443C127.047 94.0638 130.796 97.8086 135.419 97.8086H157.355C161.979 97.8086 165.727 94.0638 165.727 89.4443V67.5279C165.727 62.9085 161.979 59.1637 157.355 59.1637Z" fill="#367CFF"/>
<path d="M104.78 59.1637H82.8438C78.2202 59.1637 74.472 62.9085 74.472 67.5279V89.4443C74.472 94.0638 78.2202 97.8086 82.8438 97.8086H104.78C109.404 97.8086 113.152 94.0638 113.152 89.4443V67.5279C113.152 62.9085 109.404 59.1637 104.78 59.1637Z" fill="#367CFF"/>
<path d="M314.316 59.1637H292.38C287.756 59.1637 284.008 62.9085 284.008 67.5279V89.4443C284.008 94.0638 287.756 97.8086 292.38 97.8086H314.316C318.94 97.8086 322.688 94.0638 322.688 89.4443V67.5279C322.688 62.9085 318.94 59.1637 314.316 59.1637Z" fill="#367CFF"/>
<path d="M366.891 59.1637H344.955C340.332 59.1637 336.583 62.9085 336.583 67.5279V89.4443C336.583 94.0638 340.332 97.8086 344.955 97.8086H366.891C371.515 97.8086 375.263 94.0638 375.263 89.4443V67.5279C375.263 62.9085 371.515 59.1637 366.891 59.1637Z" fill="#367CFF"/>
<path d="M262.421 107.977H240.654C235.984 107.977 232.198 111.759 232.198 116.425V138.173C232.198 142.839 235.984 146.622 240.654 146.622H262.421C267.092 146.622 270.877 142.839 270.877 138.173V116.425C270.877 111.759 267.092 107.977 262.421 107.977Z" fill="#367CFF"/>
<path d="M314.997 107.977H293.229C288.559 107.977 284.773 111.759 284.773 116.425V138.173C284.773 142.839 288.559 146.622 293.229 146.622H314.997C319.667 146.622 323.453 142.839 323.453 138.173V116.425C323.453 111.759 319.667 107.977 314.997 107.977Z" fill="#367CFF"/>
<path d="M367.572 107.977H345.805C341.134 107.977 337.349 111.759 337.349 116.425V138.173C337.349 142.839 341.134 146.622 345.805 146.622H367.572C372.242 146.622 376.028 142.839 376.028 138.173V116.425C376.028 111.759 372.242 107.977 367.572 107.977Z" fill="#367CFF"/>
<path d="M104.696 107.977H82.928C78.2579 107.977 74.472 111.759 74.472 116.425V138.173C74.472 142.839 78.2579 146.622 82.928 146.622H104.696C109.366 146.622 113.152 142.839 113.152 138.173V116.425C113.152 111.759 109.366 107.977 104.696 107.977Z" fill="#367CFF"/>
<path d="M157.271 107.977H135.503C130.833 107.977 127.047 111.759 127.047 116.425V138.173C127.047 142.839 130.833 146.622 135.503 146.622H157.271C161.941 146.622 165.727 142.839 165.727 138.173V116.425C165.727 111.759 161.941 107.977 157.271 107.977Z" fill="#367CFF"/>
<path d="M209.846 107.977H188.078C183.408 107.977 179.622 111.759 179.622 116.425V138.173C179.622 142.839 183.408 146.622 188.078 146.622H209.846C214.516 146.622 218.302 142.839 218.302 138.173V116.425C218.302 111.759 214.516 107.977 209.846 107.977Z" fill="#367CFF"/>
<path d="M262.421 162.343H240.654C235.984 162.343 232.198 166.125 232.198 170.791V192.539C232.198 197.205 235.984 200.987 240.654 200.987H262.421C267.092 200.987 270.877 197.205 270.877 192.539V170.791C270.877 166.125 267.092 162.343 262.421 162.343Z" fill="#367CFF"/>
<path d="M314.997 162.343H293.229C288.559 162.343 284.773 166.125 284.773 170.791V192.539C284.773 197.205 288.559 200.987 293.229 200.987H314.997C319.667 200.987 323.453 197.205 323.453 192.539V170.791C323.453 166.125 319.667 162.343 314.997 162.343Z" fill="#367CFF"/>
<path d="M367.572 162.343H345.805C341.134 162.343 337.349 166.125 337.349 170.791V192.539C337.349 197.205 341.134 200.987 345.805 200.987H367.572C372.242 200.987 376.028 197.205 376.028 192.539V170.791C376.028 166.125 372.242 162.343 367.572 162.343Z" fill="#367CFF"/>
<path d="M104.696 162.343H82.928C78.2579 162.343 74.472 166.125 74.472 170.791V192.539C74.472 197.205 78.2579 200.987 82.928 200.987H104.696C109.366 200.987 113.152 197.205 113.152 192.539V170.791C113.152 166.125 109.366 162.343 104.696 162.343Z" fill="#367CFF"/>
<path d="M157.271 162.343H135.503C130.833 162.343 127.047 166.125 127.047 170.791V192.539C127.047 197.205 130.833 200.987 135.503 200.987H157.271C161.941 200.987 165.727 197.205 165.727 192.539V170.791C165.727 166.125 161.941 162.343 157.271 162.343Z" fill="#367CFF"/>
<path d="M209.846 162.343H188.078C183.408 162.343 179.622 166.125 179.622 170.791V192.539C179.622 197.205 183.408 200.987 188.078 200.987H209.846C214.516 200.987 218.302 197.205 218.302 192.539V170.791C218.302 166.125 214.516 162.343 209.846 162.343Z" fill="#367CFF"/>
<path d="M262.421 214.691H240.654C235.984 214.691 232.198 218.473 232.198 223.139V244.887C232.198 249.553 235.984 253.335 240.654 253.335H262.421C267.092 253.335 270.877 249.553 270.877 244.887V223.139C270.877 218.473 267.092 214.691 262.421 214.691Z" fill="#367CFF"/>
<path d="M314.232 213.927H292.464C287.794 213.927 284.008 217.709 284.008 222.375V244.123C284.008 248.789 287.794 252.572 292.464 252.572H314.232C318.902 252.572 322.688 248.789 322.688 244.123V222.375C322.688 217.709 318.902 213.927 314.232 213.927Z" fill="#367CFF"/>
<path d="M366.807 213.927H345.039C340.369 213.927 336.583 217.709 336.583 222.375V244.123C336.583 248.789 340.369 252.572 345.039 252.572H366.807C371.477 252.572 375.263 248.789 375.263 244.123V222.375C375.263 217.709 371.477 213.927 366.807 213.927Z" fill="#367CFF"/>
<path d="M104.696 214.691H82.928C78.2579 214.691 74.472 218.473 74.472 223.139V244.887C74.472 249.553 78.2579 253.335 82.928 253.335H104.696C109.366 253.335 113.152 249.553 113.152 244.887V223.139C113.152 218.473 109.366 214.691 104.696 214.691Z" fill="#367CFF"/>
<path d="M157.271 214.691H135.503C130.833 214.691 127.047 218.473 127.047 223.139V244.887C127.047 249.553 130.833 253.335 135.503 253.335H157.271C161.941 253.335 165.727 249.553 165.727 244.887V223.139C165.727 218.473 161.941 214.691 157.271 214.691Z" fill="#367CFF"/>
<path d="M209.846 214.691H188.078C183.408 214.691 179.622 218.473 179.622 223.139V244.887C179.622 249.553 183.408 253.335 188.078 253.335H209.846C214.516 253.335 218.302 249.553 218.302 244.887V223.139C218.302 218.473 214.516 214.691 209.846 214.691Z" fill="#367CFF"/>
<path d="M261.657 262.106H239.889C235.219 262.106 231.433 265.889 231.433 270.554V292.303C231.433 296.968 235.219 300.751 239.889 300.751H261.657C266.327 300.751 270.113 296.968 270.113 292.303V270.554C270.113 265.889 266.327 262.106 261.657 262.106Z" fill="#367CFF"/>
<path d="M103.931 262.106H82.1628C77.4927 262.106 73.7068 265.889 73.7068 270.554V292.303C73.7068 296.968 77.4927 300.751 82.1628 300.751H103.931C108.601 300.751 112.387 296.968 112.387 292.303V270.554C112.387 265.889 108.601 262.106 103.931 262.106Z" fill="#367CFF"/>
<path d="M156.506 262.106H134.738C130.068 262.106 126.282 265.889 126.282 270.554V292.303C126.282 296.968 130.068 300.751 134.738 300.751H156.506C161.176 300.751 164.962 296.968 164.962 292.303V270.554C164.962 265.889 161.176 262.106 156.506 262.106Z" fill="#367CFF"/>
<path d="M209.082 262.106H187.314C182.644 262.106 178.858 265.889 178.858 270.554V292.303C178.858 296.968 182.644 300.751 187.314 300.751H209.082C213.752 300.751 217.538 296.968 217.538 292.303V270.554C217.538 265.889 213.752 262.106 209.082 262.106Z" fill="#367CFF"/>
</g>
<path d="M450.829 22.3947V36.1347H50.6693V22.3947C50.6685 19.58 51.2227 16.7928 52.3002 14.1921C53.3778 11.5915 54.9576 9.22838 56.9494 7.23782C58.9411 5.24726 61.3059 3.66823 63.9086 2.59091C66.5113 1.5136 69.3009 0.959106 72.1181 0.959106H429.379C432.197 0.959429 434.986 1.51413 437.589 2.59155C440.191 3.66896 442.556 5.24798 444.548 7.23846C446.54 9.22894 448.12 11.5919 449.197 14.1924C450.275 16.7929 450.83 19.5801 450.829 22.3947Z" fill="black"/>
<path d="M208.594 266.381H187.802C185.225 266.381 183.136 268.468 183.136 271.042V291.815C183.136 294.389 185.225 296.476 187.802 296.476H208.594C211.17 296.476 213.259 294.389 213.259 291.815V271.042C213.259 268.468 211.17 266.381 208.594 266.381Z" fill="white"/>
<path d="M102.418 202.882L76.7478 198.241C76.0202 198.11 75.3747 197.695 74.9534 197.088C74.532 196.481 74.3693 195.731 74.5009 195.004L78.4704 173.089L86.3715 167.833L108.056 171.754C108.783 171.886 109.429 172.301 109.85 172.908C110.271 173.515 110.434 174.264 110.303 174.991L105.657 200.637C105.592 200.997 105.456 201.341 105.258 201.649C105.06 201.956 104.804 202.222 104.503 202.43C104.202 202.639 103.863 202.786 103.505 202.864C103.147 202.941 102.778 202.947 102.418 202.882Z" fill="#367CFF"/>
<path opacity="0.29" d="M86.3715 167.833L78.4705 173.089L85.2179 174.426L86.3715 167.833Z" fill="#FFFFFA"/>
<g opacity="0.88">
<path d="M104.424 187.929C104.398 187.93 104.372 187.928 104.347 187.923L80.3265 183.485C80.225 183.466 80.1352 183.408 80.0767 183.323C80.0182 183.238 79.9958 183.133 80.0146 183.032C80.0333 182.93 80.0916 182.841 80.1766 182.782C80.2616 182.724 80.3664 182.701 80.4678 182.72L104.488 187.158C104.583 187.176 104.667 187.228 104.725 187.304C104.784 187.38 104.812 187.476 104.804 187.571C104.797 187.667 104.754 187.756 104.684 187.822C104.614 187.888 104.523 187.926 104.427 187.929H104.424Z" fill="white"/>
<path d="M103.563 192.963C103.537 192.963 103.511 192.961 103.485 192.957L79.4654 188.518C79.4135 188.511 79.3637 188.493 79.3189 188.466C79.2741 188.439 79.2352 188.403 79.2047 188.36C79.1741 188.317 79.1525 188.269 79.141 188.218C79.1296 188.167 79.1286 188.114 79.1381 188.062C79.1476 188.011 79.1675 187.962 79.1964 187.918C79.2254 187.874 79.2629 187.837 79.3066 187.808C79.3504 187.779 79.3995 187.76 79.4511 187.75C79.5027 187.741 79.5556 187.742 79.6068 187.753L103.626 192.191C103.722 192.208 103.807 192.26 103.866 192.337C103.925 192.413 103.953 192.509 103.946 192.605C103.938 192.701 103.895 192.791 103.824 192.857C103.754 192.923 103.662 192.961 103.565 192.963H103.563Z" fill="white"/>
<path d="M89.4702 195.01C89.4442 195.011 89.4183 195.009 89.3928 195.004L78.7384 193.036C78.6865 193.028 78.6367 193.01 78.5919 192.983C78.5471 192.956 78.5082 192.92 78.4776 192.877C78.4471 192.835 78.4254 192.786 78.414 192.735C78.4026 192.684 78.4016 192.631 78.4111 192.58C78.4206 192.528 78.4404 192.479 78.4694 192.436C78.4983 192.392 78.5358 192.354 78.5796 192.326C78.6233 192.297 78.6725 192.277 78.7241 192.268C78.7756 192.258 78.8286 192.259 78.8798 192.271L89.5341 194.24C89.6286 194.257 89.7131 194.309 89.7715 194.386C89.8299 194.462 89.858 194.557 89.8504 194.653C89.8428 194.748 89.8 194.838 89.7302 194.904C89.6605 194.97 89.5687 195.008 89.4727 195.01H89.4702Z" fill="white"/>
</g>
<path d="M104.538 183.838C104.443 183.838 104.349 183.83 104.255 183.812L99.0576 182.866C98.8526 182.828 98.657 182.751 98.482 182.638C98.3071 182.525 98.1562 182.378 98.0381 182.207C97.92 182.035 97.837 181.842 97.7938 181.638C97.7507 181.435 97.7482 181.225 97.7867 181.02L98.66 175.506C98.7357 175.097 98.9692 174.734 99.3102 174.496C99.6511 174.257 100.072 174.162 100.483 174.231L105.696 175.121C105.903 175.156 106.101 175.232 106.278 175.344C106.455 175.456 106.609 175.602 106.729 175.774C106.849 175.946 106.933 176.139 106.978 176.344C107.022 176.549 107.025 176.761 106.987 176.967L106.098 182.541C106.03 182.905 105.837 183.234 105.552 183.471C105.267 183.707 104.909 183.837 104.538 183.838ZM100.218 174.822C99.9923 174.823 99.7739 174.902 99.6001 175.045C99.4263 175.189 99.308 175.389 99.2654 175.61L98.392 181.124C98.3674 181.25 98.368 181.379 98.3938 181.505C98.4196 181.63 98.47 181.749 98.5422 181.855C98.6144 181.961 98.707 182.051 98.8144 182.121C98.9219 182.191 99.0422 182.239 99.1683 182.262L104.366 183.209C104.617 183.253 104.876 183.197 105.086 183.052C105.296 182.908 105.441 182.687 105.49 182.436L106.38 176.857C106.404 176.731 106.402 176.602 106.375 176.476C106.349 176.351 106.297 176.232 106.224 176.127C106.15 176.021 106.057 175.932 105.948 175.863C105.84 175.794 105.719 175.747 105.592 175.726L100.379 174.835C100.326 174.826 100.272 174.822 100.218 174.822Z" fill="white"/>
<path d="M192.015 291.362C191.961 291.362 191.906 291.362 191.851 291.354C191.601 291.331 191.358 291.257 191.138 291.135C190.919 291.014 190.727 290.848 190.575 290.648L185.114 283.472C184.824 283.091 184.697 282.61 184.762 282.135C184.827 281.66 185.078 281.23 185.46 280.94C185.841 280.65 186.323 280.523 186.798 280.588C187.274 280.653 187.704 280.904 187.994 281.285L192.257 286.887L208.617 271.966C208.792 271.806 208.998 271.682 209.221 271.602C209.444 271.521 209.681 271.485 209.919 271.496C210.156 271.506 210.389 271.564 210.604 271.665C210.819 271.765 211.012 271.907 211.172 272.083C211.332 272.258 211.456 272.463 211.537 272.686C211.618 272.91 211.654 273.146 211.643 273.383C211.632 273.621 211.575 273.853 211.474 274.068C211.373 274.283 211.231 274.476 211.055 274.636L193.233 290.887C192.9 291.192 192.466 291.361 192.015 291.362Z" fill="#367CFF"/>
<path d="M429.853 84.327L408.215 98.8849C407.911 99.0898 407.57 99.2327 407.211 99.3057C406.852 99.3786 406.482 99.3801 406.122 99.31C405.763 99.2399 405.421 99.0996 405.115 98.8972C404.81 98.6947 404.548 98.4341 404.343 98.1303L391.892 79.658L393.886 70.3862L412.167 58.0879C412.471 57.8833 412.812 57.7406 413.171 57.6678C413.53 57.595 413.9 57.5936 414.259 57.6636C414.619 57.7337 414.961 57.8739 415.266 58.0762C415.572 58.2785 415.834 58.5389 416.039 58.8426L430.61 80.4605C430.814 80.764 430.957 81.1048 431.03 81.4634C431.102 81.8219 431.103 82.1913 431.033 82.5504C430.963 82.9094 430.823 83.2511 430.62 83.556C430.418 83.8608 430.157 84.1228 429.853 84.327Z" fill="#262626"/>
<path opacity="0.29" d="M393.889 70.3856L391.894 79.658L397.663 75.9149L393.889 70.3856Z" fill="#FFFFFA"/>
<g opacity="0.88">
<path d="M420.855 72.2111C420.836 72.2297 420.815 72.2464 420.793 72.2608L400.48 85.8148C400.394 85.8658 400.292 85.882 400.195 85.8599C400.097 85.8378 400.012 85.7791 399.957 85.696C399.902 85.613 399.881 85.5119 399.898 85.4136C399.915 85.3154 399.97 85.2275 400.05 85.1683L420.364 71.6143C420.444 71.5615 420.541 71.5402 420.636 71.5545C420.731 71.5688 420.817 71.6178 420.878 71.6919C420.939 71.7659 420.97 71.86 420.966 71.9558C420.962 72.0517 420.922 72.1426 420.855 72.2111H420.855Z" fill="white"/>
<path d="M423.75 76.419C423.732 76.4376 423.711 76.4543 423.689 76.4687L403.375 90.0227C403.29 90.0738 403.187 90.0899 403.09 90.0678C402.993 90.0456 402.908 89.987 402.852 89.9039C402.797 89.8209 402.776 89.7198 402.793 89.6215C402.81 89.5233 402.865 89.4354 402.945 89.3761L423.259 75.8222C423.339 75.7694 423.436 75.7481 423.531 75.7624C423.626 75.7767 423.712 75.8257 423.773 75.8998C423.834 75.9738 423.866 76.0679 423.861 76.1637C423.857 76.2596 423.818 76.3505 423.75 76.419Z" fill="white"/>
<path d="M415.079 87.7054C415.061 87.724 415.04 87.7407 415.018 87.7551L406.011 93.7671C405.969 93.7983 405.921 93.8207 405.869 93.8328C405.818 93.8448 405.765 93.8464 405.713 93.8373C405.661 93.8282 405.611 93.8086 405.567 93.7798C405.523 93.751 405.485 93.7135 405.456 93.6696C405.427 93.6258 405.407 93.5764 405.397 93.5246C405.388 93.4728 405.389 93.4196 405.401 93.3683C405.412 93.3169 405.434 93.2685 405.465 93.2259C405.496 93.1833 405.536 93.1474 405.581 93.1205L414.591 87.1086C414.672 87.0558 414.768 87.0345 414.863 87.0488C414.958 87.0631 415.045 87.1121 415.106 87.1861C415.167 87.2602 415.198 87.3543 415.194 87.4501C415.19 87.546 415.15 87.6369 415.083 87.7054H415.079Z" fill="white"/>
</g>
<path d="M434.809 529.71H35.075C34.9609 529.71 34.8514 529.665 34.7708 529.584C34.6901 529.504 34.6448 529.394 34.6448 529.28C34.6448 529.166 34.6901 529.057 34.7708 528.976C34.8514 528.896 34.9609 528.851 35.075 528.851H434.809C434.923 528.851 435.033 528.896 435.113 528.976C435.194 529.057 435.239 529.166 435.239 529.28C435.239 529.394 435.194 529.504 435.113 529.584C435.033 529.665 434.923 529.71 434.809 529.71Z" fill="#292A2E"/>
<path d="M361.981 502.588C361.981 502.588 359.207 516.956 345.739 517.759C332.271 518.563 335.192 529.279 335.192 529.279H386.656V503.59L361.981 502.588Z" fill="#F16E00"/>
<path d="M377.855 240.442C377.855 240.442 377.694 236.122 377.728 245.922C377.855 282.474 379.719 324.225 381.271 348.657C383.763 387.933 388.926 511.759 388.926 511.759L352.65 511.476L322.333 238.957L377.855 240.442Z" fill="black"/>
<path d="M338.944 284.026C338.944 284.026 337.543 310.552 337.285 316.779C336.684 331.181 336.145 346.186 336.145 363.092L331.144 318.679C331.144 318.679 335.043 304.789 338.944 284.026Z" fill="#0A0A0A"/>
<path d="M295.633 502.588C295.633 502.588 292.858 516.956 279.391 517.759C265.923 518.563 268.844 529.279 268.844 529.279H320.308V503.59L295.633 502.588Z" fill="#F16E00"/>
<path d="M285.402 243.281C285.402 243.281 281.792 369.436 282.231 375.542L287.432 510.811L324.379 511.425L327.284 369.38C327.284 369.38 327.726 330.195 337.202 293.809C342.05 275.135 344.968 256.013 345.91 236.744L285.402 243.281Z" fill="black"/>
<path d="M378.222 240.438L378.333 240.445C378.333 240.445 378.253 238.314 378.222 240.438Z" fill="#333333"/>
<path d="M308.012 132.974C308.122 132.96 309.338 153.128 332.79 151.37C349.025 150.155 354.817 132.945 355.185 132.945C353.435 132.576 350.488 132.033 349.71 131.619C347.154 130.246 343.512 128.818 342.688 123.858C342.214 120.999 343.019 106.374 342.771 103.481L318.328 109.038C318.676 115.147 321.113 129.309 312.571 131.819C311.15 132.23 309.619 132.612 308.012 132.974Z" fill="#E98862"/>
<path d="M319.016 118.566C328.858 119.325 341.492 115.153 343.87 102.031L346.017 90.1916C348.396 77.0705 343.426 65.1854 331.061 62.9479C318.695 60.7098 307.522 69.6746 305.145 82.7956L304.195 88.037C303.9 89.8423 303.729 91.6657 303.682 93.4944C303.523 98.3268 303.3 105.677 305.693 111.075C307.952 116.172 312.728 118.082 319.016 118.566Z" fill="#E98862"/>
<path d="M341.087 62.2756C337.18 61.0581 333.128 60.3692 329.038 60.2272C328.903 59.5134 328.598 58.8426 328.149 58.2717C327.7 57.7009 327.119 57.2469 326.456 56.9483C324.294 56.1046 321.653 57.4635 319.896 60.0829C318.979 58.5165 317.545 57.318 315.839 56.6929C310.998 55.1873 310.758 62.135 310.758 62.135C310.758 62.135 303.083 54.5677 302.843 64.219C302.553 75.8965 304.7 79.324 306.267 80.1836C309.362 81.8912 311.666 81.602 312.891 84.1133C316.6 91.7199 312.964 113.146 317.254 115.828C323.83 119.938 337.294 120.08 341.668 119.768C343.35 119.645 344.925 117.699 345.632 116.171C347.92 111.235 353.022 100.045 354.441 95.4169C357.067 86.8801 356.869 67.4242 341.087 62.2756Z" fill="#0C0C0C"/>
<path d="M314.321 108.177C318.118 107.766 320.755 103.373 320.344 99.5806C319.933 95.7878 316.627 94.0292 312.83 94.4412L311.15 97.1951L311.058 108.532L314.321 108.177Z" fill="#E98862"/>
<path d="M280.641 173.936C281.339 182.122 284.731 233.195 285.402 243.278H377.818C378.34 234.184 380.684 194.417 382.664 176.633C384.554 159.662 388.261 151.166 385.543 146.149C381.102 137.949 368.967 133.211 360.693 132.092C355.64 131.409 348.04 130.919 348.04 130.919H312.456C309.075 130.919 289.369 132.508 285.013 135.859C277.397 141.722 279.162 156.59 280.641 173.936Z" fill="#F16E00"/>
<path d="M279.365 163.682C279.287 163.682 279.211 163.652 279.154 163.598C279.097 163.544 279.063 163.47 279.058 163.392L278.313 150.393C278.308 150.312 278.336 150.232 278.39 150.171C278.444 150.11 278.52 150.074 278.601 150.069C278.683 150.065 278.762 150.093 278.823 150.147C278.883 150.201 278.92 150.276 278.926 150.357L279.671 163.357C279.674 163.397 279.668 163.438 279.655 163.476C279.642 163.514 279.621 163.549 279.594 163.579C279.567 163.609 279.535 163.634 279.498 163.651C279.462 163.669 279.422 163.679 279.382 163.681L279.365 163.682Z" fill="#0C0C0C"/>
<path d="M397.797 242.745C400.515 242.745 403.193 242.088 405.603 240.832C408.012 239.575 410.082 237.755 411.637 235.527C413.191 233.299 414.183 230.729 414.53 228.036C414.876 225.342 414.566 222.605 413.626 220.057C412.671 217.47 390.288 158.252 386.028 147.279L354.476 160.051C356.872 166.22 365.552 189.605 372.526 208.443L360.94 207.185L357.293 240.701L395.972 242.646C396.578 242.712 397.188 242.745 397.797 242.745Z" fill="#F16E00"/>
<path d="M379.791 176.979L377.52 243.272L378.134 243.293L380.405 177L379.791 176.979Z" fill="#0C0C0C"/>
<path d="M213.101 106.27L185.122 118.6C184.516 118.867 183.829 118.882 183.211 118.643C182.594 118.404 182.097 117.929 181.829 117.324L171.466 93.8493L175.511 83.9905L198.745 73.7517C199.045 73.6195 199.368 73.5477 199.696 73.5402C200.024 73.5328 200.35 73.59 200.656 73.7085C200.961 73.827 201.241 74.0044 201.478 74.2308C201.715 74.4571 201.905 74.7279 202.037 75.0276L214.378 102.982C214.645 103.587 214.66 104.274 214.421 104.89C214.181 105.507 213.706 106.003 213.101 106.27Z" fill="#262626"/>
<path opacity="0.29" d="M175.511 83.9918L171.466 93.8505L178.589 90.8535L175.511 83.9918Z" fill="#FFFFFA"/>
<g opacity="0.88">
<path d="M202.844 86.5965C202.819 86.6134 202.794 86.6278 202.767 86.6394L177.614 97.6084C177.51 97.6443 177.397 97.6399 177.296 97.5959C177.195 97.5518 177.115 97.4715 177.07 97.3708C177.026 97.2702 177.022 97.1566 177.058 97.0526C177.093 96.9487 177.167 96.8622 177.264 96.8101L202.417 85.8412C202.516 85.7988 202.628 85.7944 202.73 85.829C202.832 85.8637 202.918 85.9348 202.971 86.0288C203.024 86.1227 203.04 86.2329 203.016 86.3382C202.993 86.4434 202.931 86.5363 202.844 86.5989V86.5965Z" fill="white"/>
<path d="M204.97 91.3496C204.946 91.3666 204.921 91.381 204.894 91.3926L179.741 102.362C179.636 102.399 179.522 102.396 179.42 102.352C179.317 102.309 179.236 102.228 179.191 102.126C179.147 102.025 179.143 101.91 179.18 101.805C179.217 101.701 179.292 101.614 179.391 101.563L204.543 90.5944C204.643 90.5502 204.755 90.5446 204.858 90.5788C204.962 90.613 205.049 90.6845 205.102 90.7792C205.155 90.874 205.171 90.9852 205.147 91.0912C205.122 91.1971 205.059 91.2902 204.97 91.3521V91.3496Z" fill="white"/>
<path d="M207.338 96.5743C207.314 96.5913 207.289 96.6057 207.262 96.6173L182.109 107.586C182.004 107.624 181.89 107.621 181.788 107.577C181.685 107.533 181.604 107.453 181.559 107.351C181.515 107.249 181.511 107.135 181.548 107.03C181.585 106.925 181.66 106.839 181.759 106.788L206.911 95.8191C207.011 95.7749 207.123 95.7694 207.226 95.8035C207.33 95.8377 207.417 95.9092 207.47 96.004C207.523 96.0987 207.539 96.2099 207.515 96.3159C207.49 96.4218 207.427 96.5149 207.338 96.5768V96.5743Z" fill="white"/>
<path d="M195.511 107.34C195.487 107.357 195.461 107.371 195.434 107.383L184.278 112.248C184.174 112.284 184.06 112.279 183.959 112.235C183.858 112.191 183.778 112.111 183.734 112.01C183.69 111.91 183.685 111.796 183.721 111.692C183.757 111.588 183.83 111.502 183.927 111.45L195.084 106.585C195.184 106.542 195.295 106.538 195.397 106.573C195.499 106.607 195.585 106.678 195.638 106.772C195.691 106.866 195.707 106.977 195.684 107.082C195.66 107.187 195.599 107.28 195.511 107.342V107.34Z" fill="white"/>
</g>
<path d="M189.975 104.128C189.848 103.79 189.653 103.481 189.402 103.221C189.151 102.96 188.849 102.754 188.515 102.613C188.182 102.473 187.823 102.403 187.461 102.405C187.1 102.408 186.742 102.485 186.411 102.63C185.78 102.934 185.288 103.466 185.034 104.118C184.781 104.771 184.784 105.495 185.044 106.145L185.93 109.81C186.117 110.586 186.014 111.403 185.64 112.107C185.266 112.812 184.646 113.355 183.898 113.635C183.166 113.909 182.358 113.912 181.624 113.642C180.889 113.372 180.276 112.848 179.896 112.164C179.896 112.164 174.377 100.518 174.273 100.044C173.368 100.927 171.789 103.097 171.465 104.734C171.453 104.742 173.063 117.812 173.963 118.733L183.299 133.12C187.115 137.027 199.926 130.526 199.926 130.526L189.975 104.128Z" fill="#E98862"/>
<path d="M228.336 211.55C225.21 211.55 222.137 210.742 219.415 209.205C216.694 207.667 214.416 205.453 212.804 202.777L172.615 136.076L203.681 117.393L234.231 168.103L285.015 135.866L306.531 164.689L238.149 208.671C235.222 210.552 231.816 211.551 228.336 211.55Z" fill="#F16E00"/>
<path d="M281.156 181.296C281.087 181.296 281.021 181.273 280.966 181.231C280.912 181.188 280.874 181.129 280.858 181.062C280.841 180.995 280.848 180.925 280.877 180.862C280.905 180.799 280.954 180.748 281.015 180.717L289.79 176.192C289.862 176.155 289.947 176.148 290.024 176.173C290.102 176.197 290.167 176.252 290.204 176.324C290.242 176.397 290.249 176.481 290.224 176.559C290.199 176.636 290.144 176.701 290.072 176.738L281.297 181.262C281.254 181.284 281.205 181.296 281.156 181.296Z" fill="#0C0C0C"/>
<path d="M307.556 132.834L311.912 126.03C312.103 125.732 312.366 125.487 312.676 125.317C312.987 125.147 313.335 125.058 313.69 125.058H346.528C346.824 125.058 347.116 125.12 347.386 125.24C347.657 125.36 347.898 125.536 348.096 125.756L354.475 132.834H307.556Z" fill="#F16E00"/>
<path d="M53.9073 405.35L52.8461 405.466L65.948 525.087L67.0091 524.971L53.9073 405.35Z" fill="#292A2E"/>
<path d="M87.8414 457.573L81.3958 521.28L82.4579 521.387L88.9035 457.68L87.8414 457.573Z" fill="#292A2E"/>
<path d="M98.9255 513.579H51.0989V529.086H98.9255V513.579Z" fill="#292A2E"/>
<path opacity="0.2" d="M98.9255 513.579H51.0989V529.086H98.9255V513.579Z" fill="white"/>
<path d="M127.758 485.026C136.818 472.995 132.499 454.474 118.111 443.659C103.723 432.843 84.7147 433.828 75.6546 445.858C66.5945 457.889 70.9135 476.41 85.3014 487.226C99.6893 498.041 118.698 497.057 127.758 485.026Z" fill="#262626"/>
<path opacity="0.2" d="M127.758 485.026C136.818 472.995 132.499 454.474 118.111 443.659C103.723 432.843 84.7147 433.828 75.6546 445.858C66.5945 457.889 70.9135 476.41 85.3014 487.226C99.6893 498.041 118.698 497.057 127.758 485.026Z" fill="white"/>
<path opacity="0.5" d="M127.756 485.028C127.148 485.839 126.484 486.608 125.769 487.328C115.796 493.694 101.075 492.692 89.3964 483.911C75.0097 473.098 70.6917 454.577 79.7531 442.546C80.3623 441.737 81.0244 440.968 81.7351 440.246C91.7134 433.876 106.43 434.883 118.113 443.658C132.499 454.477 136.817 472.998 127.756 485.028Z" fill="#262626"/>
<path d="M61.0108 439.382C75.264 428.39 79.1379 409.538 69.6634 397.274C60.1888 385.011 40.9537 383.981 26.7004 394.974C12.4471 405.966 8.57322 424.818 18.0478 437.081C27.5223 449.344 46.7575 450.374 61.0108 439.382Z" fill="#262626"/>
<path opacity="0.2" d="M56.4998 436.228C45.4614 444.746 31.433 446.044 21.2641 440.499C20.0872 439.464 19.0123 438.318 18.0542 437.078C8.57491 424.818 12.4486 405.963 26.7013 394.974C37.7398 386.46 51.7682 385.157 61.9321 390.698C63.1114 391.734 64.1878 392.881 65.1463 394.124C74.6232 406.383 70.7495 425.238 56.4998 436.228Z" fill="#262626"/>
</svg>
