<svg width="105" height="33" viewBox="0 0 105 33" fill="none" xmlns="http://www.w3.org/2000/svg">
<path d="M6.66386 4.954V11.074H14.9079V15.574H6.66386V21.82H17.4279V26.5H0.543859V0.274H17.4279V4.954H6.66386ZM36.5815 7.834L29.3455 26.5H24.2695L17.0335 7.834H21.6775C22.0735 7.834 22.4035 7.93 22.6675 8.122C22.9435 8.302 23.1295 8.53 23.2255 8.806L25.8175 17.176C26.0455 17.86 26.2435 18.526 26.4115 19.174C26.5915 19.822 26.7475 20.47 26.8795 21.118C27.1435 19.822 27.5095 18.508 27.9775 17.176L30.6775 8.806C30.7735 8.53 30.9535 8.302 31.2175 8.122C31.4815 7.93 31.7935 7.834 32.1535 7.834H36.5815ZM48.299 14.926C48.299 14.482 48.239 14.05 48.119 13.63C48.011 13.21 47.825 12.838 47.561 12.514C47.309 12.178 46.973 11.908 46.553 11.704C46.133 11.5 45.623 11.398 45.023 11.398C43.967 11.398 43.139 11.704 42.539 12.316C41.939 12.916 41.543 13.786 41.351 14.926H48.299ZM41.279 18.166C41.459 19.726 41.933 20.86 42.701 21.568C43.469 22.264 44.459 22.612 45.671 22.612C46.319 22.612 46.877 22.534 47.345 22.378C47.813 22.222 48.227 22.048 48.587 21.856C48.959 21.664 49.295 21.49 49.595 21.334C49.907 21.178 50.231 21.1 50.567 21.1C51.011 21.1 51.347 21.262 51.575 21.586L53.195 23.584C52.619 24.244 51.995 24.784 51.323 25.204C50.663 25.612 49.979 25.936 49.271 26.176C48.575 26.404 47.873 26.56 47.165 26.644C46.469 26.74 45.803 26.788 45.167 26.788C43.859 26.788 42.629 26.578 41.477 26.158C40.337 25.726 39.335 25.09 38.471 24.25C37.619 23.41 36.941 22.366 36.437 21.118C35.945 19.87 35.699 18.418 35.699 16.762C35.699 15.514 35.909 14.332 36.329 13.216C36.761 12.1 37.373 11.122 38.165 10.282C38.969 9.442 39.935 8.776 41.063 8.284C42.203 7.792 43.487 7.546 44.915 7.546C46.151 7.546 47.279 7.738 48.299 8.122C49.331 8.506 50.213 9.064 50.945 9.796C51.689 10.528 52.265 11.428 52.673 12.496C53.093 13.552 53.303 14.752 53.303 16.096C53.303 16.516 53.285 16.858 53.249 17.122C53.213 17.386 53.147 17.596 53.051 17.752C52.955 17.908 52.823 18.016 52.655 18.076C52.499 18.136 52.295 18.166 52.043 18.166H41.279ZM60.1632 9.85C60.5232 9.514 60.8952 9.202 61.2792 8.914C61.6632 8.626 62.0712 8.386 62.5032 8.194C62.9472 7.99 63.4212 7.834 63.9252 7.726C64.4412 7.606 64.9992 7.546 65.5992 7.546C66.6192 7.546 67.5192 7.726 68.2992 8.086C69.0912 8.434 69.7572 8.926 70.2972 9.562C70.8372 10.186 71.2452 10.936 71.5212 11.812C71.7972 12.676 71.9352 13.618 71.9352 14.638V26.5H66.3552V14.638C66.3552 13.726 66.1452 13.018 65.7252 12.514C65.3052 11.998 64.6872 11.74 63.8712 11.74C63.2592 11.74 62.6832 11.872 62.1432 12.136C61.6152 12.388 61.0992 12.736 60.5952 13.18V26.5H55.0152V7.834H58.4712C59.1672 7.834 59.6232 8.146 59.8392 8.77L60.1632 9.85ZM80.8984 26.788C80.0104 26.788 79.2244 26.662 78.5404 26.41C77.8684 26.146 77.2984 25.78 76.8304 25.312C76.3744 24.832 76.0264 24.256 75.7864 23.584C75.5464 22.912 75.4264 22.162 75.4264 21.334V11.686H73.8424C73.5544 11.686 73.3084 11.596 73.1044 11.416C72.9004 11.224 72.7984 10.948 72.7984 10.588V8.41L75.7684 7.834L76.8664 3.28C77.0104 2.704 77.4184 2.416 78.0904 2.416H81.0064V7.87H85.6324V11.686H81.0064V20.956C81.0064 21.388 81.1084 21.748 81.3124 22.036C81.5284 22.312 81.8344 22.45 82.2304 22.45C82.4344 22.45 82.6024 22.432 82.7344 22.396C82.8784 22.348 82.9984 22.3 83.0944 22.252C83.2024 22.192 83.2984 22.144 83.3824 22.108C83.4784 22.06 83.5864 22.036 83.7064 22.036C83.8744 22.036 84.0064 22.078 84.1024 22.162C84.2104 22.234 84.3184 22.354 84.4264 22.522L86.1184 25.168C85.3984 25.708 84.5884 26.116 83.6884 26.392C82.7884 26.656 81.8584 26.788 80.8984 26.788ZM104.687 7.834L94.7148 31.342C94.5468 31.714 94.3428 31.984 94.1028 32.152C93.8628 32.332 93.4788 32.422 92.9508 32.422H88.7748L92.3748 24.862L84.9228 7.834H89.8548C90.2868 7.834 90.6168 7.93 90.8448 8.122C91.0848 8.314 91.2588 8.542 91.3668 8.806L94.4268 16.852C94.7148 17.584 94.9488 18.334 95.1288 19.102C95.2608 18.718 95.3928 18.334 95.5248 17.95C95.6568 17.566 95.7948 17.188 95.9388 16.816L98.7108 8.806C98.8188 8.53 99.0108 8.302 99.2868 8.122C99.5628 7.93 99.8628 7.834 100.187 7.834H104.687Z" fill="#0C0C0C"/>
</svg>
